<svg xmlns="http://www.w3.org/2000/svg" width="980" height="540" viewBox="0 0 980 540">
<style>
text{font-family:Arial,Helvetica,sans-serif;fill:#17202a} .muted{fill:#5d6d7e;font-size:12px}
.title{font-size:20px;font-weight:700}.axis{stroke:#aeb6bf;stroke-width:1}.grid{stroke:#e5e8e8;stroke-width:1}
</style>
<rect width="100%" height="100%" fill="#ffffff"/>
<text x="90" y="38" class="title">SBER: ACF доходностей и квадратов доходностей (кластеризация волатильности)</text>
<line x1="90" y1="75.0" x2="940" y2="75.0" class="grid"/>
<text x="80" y="79.0" text-anchor="end" class="muted">1</text>
<line x1="90" y1="152.0" x2="940" y2="152.0" class="grid"/>
<text x="80" y="156.0" text-anchor="end" class="muted">0.788574</text>
<line x1="90" y1="229.0" x2="940" y2="229.0" class="grid"/>
<text x="80" y="233.0" text-anchor="end" class="muted">0.577147</text>
<line x1="90" y1="306.0" x2="940" y2="306.0" class="grid"/>
<text x="80" y="310.0" text-anchor="end" class="muted">0.365721</text>
<line x1="90" y1="383.0" x2="940" y2="383.0" class="grid"/>
<text x="80" y="387.0" text-anchor="end" class="muted">0.154295</text>
<line x1="90" y1="460.0" x2="940" y2="460.0" class="grid"/>
<text x="80" y="464.0" text-anchor="end" class="muted">-0.057132</text>
<polyline points="90.0,75.0 132.5,439.6 175.0,448.6 217.5,387.6 260.0,430.0 302.5,424.9 345.0,429.5 387.5,446.0 430.0,449.0 472.5,438.3 515.0,439.5 557.5,460.0 600.0,453.7 642.5,428.7 685.0,443.1 727.5,445.7 770.0,430.6 812.5,443.3 855.0,446.8 897.5,437.9 940.0,442.9" fill="none" stroke="#2166ac" stroke-width="2"/>
<rect x="90" y="498" width="18" height="4" fill="#2166ac"/>
<text x="115" y="504" class="muted">ACF доходностей</text>
<polyline points="90.0,75.0 132.5,437.2 175.0,435.5 217.5,360.9 260.0,435.0 302.5,433.2 345.0,438.5 387.5,433.0 430.0,439.3 472.5,434.4 515.0,439.9 557.5,438.3 600.0,436.3 642.5,440.3 685.0,439.1 727.5,436.2 770.0,439.7 812.5,437.8 855.0,436.7 897.5,440.2 940.0,431.5" fill="none" stroke="#b2182b" stroke-width="2"/>
<rect x="240" y="498" width="18" height="4" fill="#b2182b"/>
<text x="265" y="504" class="muted">ACF квадратов доходностей</text>
<text x="90.0" y="482" text-anchor="middle" class="muted">0</text>
<text x="260.0" y="482" text-anchor="middle" class="muted">4</text>
<text x="430.0" y="482" text-anchor="middle" class="muted">8</text>
<text x="600.0" y="482" text-anchor="middle" class="muted">12</text>
<text x="770.0" y="482" text-anchor="middle" class="muted">16</text>
<text x="940.0" y="482" text-anchor="middle" class="muted">20</text>
</svg>