<svg xmlns="http://www.w3.org/2000/svg" width="900" height="520" viewBox="0 0 900 520">
<style>
text{font-family:Arial,Helvetica,sans-serif;fill:#17202a} .muted{fill:#5d6d7e;font-size:12px}
.title{font-size:20px;font-weight:700}.axis{stroke:#aeb6bf;stroke-width:1}.grid{stroke:#e5e8e8;stroke-width:1}
</style>
<rect width="100%" height="100%" fill="#ffffff"/>
<text x="80" y="38" class="title">Distribution: SBER</text>
<line x1="80" y1="70.0" x2="870" y2="70.0" class="grid"/>
<text x="70" y="74.0" text-anchor="end" class="muted">523.00</text>
<line x1="80" y1="138.0" x2="870" y2="138.0" class="grid"/>
<text x="70" y="142.0" text-anchor="end" class="muted">418.40</text>
<line x1="80" y1="206.0" x2="870" y2="206.0" class="grid"/>
<text x="70" y="210.0" text-anchor="end" class="muted">313.80</text>
<line x1="80" y1="274.0" x2="870" y2="274.0" class="grid"/>
<text x="70" y="278.0" text-anchor="end" class="muted">209.20</text>
<line x1="80" y1="342.0" x2="870" y2="342.0" class="grid"/>
<text x="70" y="346.0" text-anchor="end" class="muted">104.60</text>
<line x1="80" y1="410.0" x2="870" y2="410.0" class="grid"/>
<text x="70" y="414.0" text-anchor="end" class="muted">0</text>
<line x1="80" y1="410.0" x2="870" y2="410.0" class="axis"/>
<rect x="82.2" y="409.3" width="11.4" height="1.0" fill="#2166ac"/>
<text transform="translate(87.9,450) rotate(-45)" text-anchor="end" class="muted">-0.455918</text>
<rect x="98.0" y="410.0" width="11.4" height="1.0" fill="#d6604d"/>
<text transform="translate(103.7,450) rotate(-45)" text-anchor="end" class="muted">-0.444446</text>
<rect x="113.8" y="410.0" width="11.4" height="1.0" fill="#4393c3"/>
<text transform="translate(119.5,450) rotate(-45)" text-anchor="end" class="muted">-0.432974</text>
<rect x="129.6" y="410.0" width="11.4" height="1.0" fill="#b2182b"/>
<text transform="translate(135.3,450) rotate(-45)" text-anchor="end" class="muted">-0.421502</text>
<rect x="145.4" y="410.0" width="11.4" height="1.0" fill="#4d9221"/>
<text transform="translate(151.1,450) rotate(-45)" text-anchor="end" class="muted">-0.41003</text>
<rect x="161.2" y="410.0" width="11.4" height="1.0" fill="#9970ab"/>
<text transform="translate(166.9,450) rotate(-45)" text-anchor="end" class="muted">-0.398558</text>
<rect x="177.0" y="410.0" width="11.4" height="1.0" fill="#f4a582"/>
<text transform="translate(182.7,450) rotate(-45)" text-anchor="end" class="muted">-0.387086</text>
<rect x="192.8" y="410.0" width="11.4" height="1.0" fill="#92c5de"/>
<text transform="translate(198.5,450) rotate(-45)" text-anchor="end" class="muted">-0.375614</text>
<rect x="208.6" y="410.0" width="11.4" height="1.0" fill="#2166ac"/>
<text transform="translate(214.3,450) rotate(-45)" text-anchor="end" class="muted">-0.364142</text>
<rect x="224.4" y="410.0" width="11.4" height="1.0" fill="#d6604d"/>
<text transform="translate(230.1,450) rotate(-45)" text-anchor="end" class="muted">-0.35267</text>
<rect x="240.2" y="410.0" width="11.4" height="1.0" fill="#4393c3"/>
<text transform="translate(245.9,450) rotate(-45)" text-anchor="end" class="muted">-0.341197</text>
<rect x="256.0" y="410.0" width="11.4" height="1.0" fill="#b2182b"/>
<text transform="translate(261.7,450) rotate(-45)" text-anchor="end" class="muted">-0.329725</text>
<rect x="271.8" y="410.0" width="11.4" height="1.0" fill="#4d9221"/>
<text transform="translate(277.5,450) rotate(-45)" text-anchor="end" class="muted">-0.318253</text>
<rect x="287.6" y="410.0" width="11.4" height="1.0" fill="#9970ab"/>
<text transform="translate(293.3,450) rotate(-45)" text-anchor="end" class="muted">-0.306781</text>
<rect x="303.4" y="410.0" width="11.4" height="1.0" fill="#f4a582"/>
<text transform="translate(309.1,450) rotate(-45)" text-anchor="end" class="muted">-0.295309</text>
<rect x="319.2" y="410.0" width="11.4" height="1.0" fill="#92c5de"/>
<text transform="translate(324.9,450) rotate(-45)" text-anchor="end" class="muted">-0.283837</text>
<rect x="335.0" y="410.0" width="11.4" height="1.0" fill="#2166ac"/>
<text transform="translate(340.7,450) rotate(-45)" text-anchor="end" class="muted">-0.272365</text>
<rect x="350.8" y="410.0" width="11.4" height="1.0" fill="#d6604d"/>
<text transform="translate(356.5,450) rotate(-45)" text-anchor="end" class="muted">-0.260893</text>
<rect x="366.6" y="410.0" width="11.4" height="1.0" fill="#4393c3"/>
<text transform="translate(372.3,450) rotate(-45)" text-anchor="end" class="muted">-0.249421</text>
<rect x="382.4" y="410.0" width="11.4" height="1.0" fill="#b2182b"/>
<text transform="translate(388.1,450) rotate(-45)" text-anchor="end" class="muted">-0.237949</text>
<rect x="398.2" y="409.3" width="11.4" height="1.0" fill="#4d9221"/>
<text transform="translate(403.9,450) rotate(-45)" text-anchor="end" class="muted">-0.226477</text>
<rect x="414.0" y="410.0" width="11.4" height="1.0" fill="#9970ab"/>
<text transform="translate(419.7,450) rotate(-45)" text-anchor="end" class="muted">-0.215004</text>
<rect x="429.8" y="410.0" width="11.4" height="1.0" fill="#f4a582"/>
<text transform="translate(435.5,450) rotate(-45)" text-anchor="end" class="muted">-0.203532</text>
<rect x="445.6" y="410.0" width="11.4" height="1.0" fill="#92c5de"/>
<text transform="translate(451.3,450) rotate(-45)" text-anchor="end" class="muted">-0.19206</text>
<rect x="461.4" y="410.0" width="11.4" height="1.0" fill="#2166ac"/>
<text transform="translate(467.1,450) rotate(-45)" text-anchor="end" class="muted">-0.180588</text>
<rect x="477.2" y="410.0" width="11.4" height="1.0" fill="#d6604d"/>
<text transform="translate(482.9,450) rotate(-45)" text-anchor="end" class="muted">-0.169116</text>
<rect x="493.0" y="410.0" width="11.4" height="1.0" fill="#4393c3"/>
<text transform="translate(498.7,450) rotate(-45)" text-anchor="end" class="muted">-0.157644</text>
<rect x="508.8" y="410.0" width="11.4" height="1.0" fill="#b2182b"/>
<text transform="translate(514.5,450) rotate(-45)" text-anchor="end" class="muted">-0.146172</text>
<rect x="524.6" y="410.0" width="11.4" height="1.0" fill="#4d9221"/>
<text transform="translate(530.3,450) rotate(-45)" text-anchor="end" class="muted">-0.1347</text>
<rect x="540.4" y="410.0" width="11.4" height="1.0" fill="#9970ab"/>
<text transform="translate(546.1,450) rotate(-45)" text-anchor="end" class="muted">-0.123228</text>
<rect x="556.2" y="409.3" width="11.4" height="1.0" fill="#f4a582"/>
<text transform="translate(561.9,450) rotate(-45)" text-anchor="end" class="muted">-0.111756</text>
<rect x="572.0" y="408.7" width="11.4" height="1.3" fill="#92c5de"/>
<text transform="translate(577.7,450) rotate(-45)" text-anchor="end" class="muted">-0.100284</text>
<rect x="587.8" y="409.3" width="11.4" height="1.0" fill="#2166ac"/>
<text transform="translate(593.5,450) rotate(-45)" text-anchor="end" class="muted">-0.088812</text>
<rect x="603.6" y="408.7" width="11.4" height="1.3" fill="#d6604d"/>
<text transform="translate(609.3,450) rotate(-45)" text-anchor="end" class="muted">-0.077339</text>
<rect x="619.4" y="402.8" width="11.4" height="7.2" fill="#4393c3"/>
<text transform="translate(625.1,450) rotate(-45)" text-anchor="end" class="muted">-0.065867</text>
<rect x="635.2" y="403.5" width="11.4" height="6.5" fill="#b2182b"/>
<text transform="translate(640.9,450) rotate(-45)" text-anchor="end" class="muted">-0.054395</text>
<rect x="651.0" y="395.7" width="11.4" height="14.3" fill="#4d9221"/>
<text transform="translate(656.7,450) rotate(-45)" text-anchor="end" class="muted">-0.042923</text>
<rect x="666.8" y="369.7" width="11.4" height="40.3" fill="#9970ab"/>
<text transform="translate(672.5,450) rotate(-45)" text-anchor="end" class="muted">-0.031451</text>
<rect x="682.6" y="297.5" width="11.4" height="112.5" fill="#f4a582"/>
<text transform="translate(688.3,450) rotate(-45)" text-anchor="end" class="muted">-0.019979</text>
<rect x="698.4" y="70.0" width="11.4" height="340.0" fill="#92c5de"/>
<text transform="translate(704.1,450) rotate(-45)" text-anchor="end" class="muted">-0.008507</text>
<rect x="714.2" y="212.4" width="11.4" height="197.6" fill="#2166ac"/>
<text transform="translate(719.9,450) rotate(-45)" text-anchor="end" class="muted">0.002965</text>
<rect x="730.0" y="339.8" width="11.4" height="70.2" fill="#d6604d"/>
<text transform="translate(735.7,450) rotate(-45)" text-anchor="end" class="muted">0.014437</text>
<rect x="745.8" y="382.7" width="11.4" height="27.3" fill="#4393c3"/>
<text transform="translate(751.5,450) rotate(-45)" text-anchor="end" class="muted">0.025909</text>
<rect x="761.6" y="393.7" width="11.4" height="16.3" fill="#b2182b"/>
<text transform="translate(767.3,450) rotate(-45)" text-anchor="end" class="muted">0.037381</text>
<rect x="777.4" y="405.4" width="11.4" height="4.6" fill="#4d9221"/>
<text transform="translate(783.1,450) rotate(-45)" text-anchor="end" class="muted">0.048853</text>
<rect x="793.2" y="404.1" width="11.4" height="5.9" fill="#9970ab"/>
<text transform="translate(798.9,450) rotate(-45)" text-anchor="end" class="muted">0.060326</text>
<rect x="809.0" y="409.3" width="11.4" height="1.0" fill="#f4a582"/>
<text transform="translate(814.7,450) rotate(-45)" text-anchor="end" class="muted">0.071798</text>
<rect x="824.8" y="409.3" width="11.4" height="1.0" fill="#92c5de"/>
<text transform="translate(830.5,450) rotate(-45)" text-anchor="end" class="muted">0.08327</text>
<rect x="840.6" y="409.3" width="11.4" height="1.0" fill="#2166ac"/>
<text transform="translate(846.3,450) rotate(-45)" text-anchor="end" class="muted">0.094742</text>
<rect x="856.4" y="409.3" width="11.4" height="1.0" fill="#d6604d"/>
<text transform="translate(862.1,450) rotate(-45)" text-anchor="end" class="muted">0.106214</text>
</svg>