<svg xmlns="http://www.w3.org/2000/svg" width="900" height="520" viewBox="0 0 900 520">
<style>
text{font-family:Arial,Helvetica,sans-serif;fill:#17202a} .muted{fill:#5d6d7e;font-size:12px}
.title{font-size:20px;font-weight:700}.axis{stroke:#aeb6bf;stroke-width:1}.grid{stroke:#e5e8e8;stroke-width:1}
</style>
<rect width="100%" height="100%" fill="#ffffff"/>
<text x="80" y="38" class="title">Distribution: Курс_USD</text>
<line x1="80" y1="70.0" x2="870" y2="70.0" class="grid"/>
<text x="70" y="74.0" text-anchor="end" class="muted">485.00</text>
<line x1="80" y1="138.0" x2="870" y2="138.0" class="grid"/>
<text x="70" y="142.0" text-anchor="end" class="muted">388.00</text>
<line x1="80" y1="206.0" x2="870" y2="206.0" class="grid"/>
<text x="70" y="210.0" text-anchor="end" class="muted">291.00</text>
<line x1="80" y1="274.0" x2="870" y2="274.0" class="grid"/>
<text x="70" y="278.0" text-anchor="end" class="muted">194.00</text>
<line x1="80" y1="342.0" x2="870" y2="342.0" class="grid"/>
<text x="70" y="346.0" text-anchor="end" class="muted">97</text>
<line x1="80" y1="410.0" x2="870" y2="410.0" class="grid"/>
<text x="70" y="414.0" text-anchor="end" class="muted">0</text>
<line x1="80" y1="410.0" x2="870" y2="410.0" class="axis"/>
<rect x="82.2" y="409.3" width="11.4" height="1.0" fill="#2166ac"/>
<text transform="translate(87.9,450) rotate(-45)" text-anchor="end" class="muted">-0.214249</text>
<rect x="98.0" y="410.0" width="11.4" height="1.0" fill="#d6604d"/>
<text transform="translate(103.7,450) rotate(-45)" text-anchor="end" class="muted">-0.205007</text>
<rect x="113.8" y="410.0" width="11.4" height="1.0" fill="#4393c3"/>
<text transform="translate(119.5,450) rotate(-45)" text-anchor="end" class="muted">-0.195765</text>
<rect x="129.6" y="410.0" width="11.4" height="1.0" fill="#b2182b"/>
<text transform="translate(135.3,450) rotate(-45)" text-anchor="end" class="muted">-0.186522</text>
<rect x="145.4" y="410.0" width="11.4" height="1.0" fill="#4d9221"/>
<text transform="translate(151.1,450) rotate(-45)" text-anchor="end" class="muted">-0.17728</text>
<rect x="161.2" y="410.0" width="11.4" height="1.0" fill="#9970ab"/>
<text transform="translate(166.9,450) rotate(-45)" text-anchor="end" class="muted">-0.168037</text>
<rect x="177.0" y="410.0" width="11.4" height="1.0" fill="#f4a582"/>
<text transform="translate(182.7,450) rotate(-45)" text-anchor="end" class="muted">-0.158795</text>
<rect x="192.8" y="410.0" width="11.4" height="1.0" fill="#92c5de"/>
<text transform="translate(198.5,450) rotate(-45)" text-anchor="end" class="muted">-0.149553</text>
<rect x="208.6" y="410.0" width="11.4" height="1.0" fill="#2166ac"/>
<text transform="translate(214.3,450) rotate(-45)" text-anchor="end" class="muted">-0.14031</text>
<rect x="224.4" y="410.0" width="11.4" height="1.0" fill="#d6604d"/>
<text transform="translate(230.1,450) rotate(-45)" text-anchor="end" class="muted">-0.131068</text>
<rect x="240.2" y="409.3" width="11.4" height="1.0" fill="#4393c3"/>
<text transform="translate(245.9,450) rotate(-45)" text-anchor="end" class="muted">-0.121825</text>
<rect x="256.0" y="410.0" width="11.4" height="1.0" fill="#b2182b"/>
<text transform="translate(261.7,450) rotate(-45)" text-anchor="end" class="muted">-0.112583</text>
<rect x="271.8" y="408.6" width="11.4" height="1.4" fill="#4d9221"/>
<text transform="translate(277.5,450) rotate(-45)" text-anchor="end" class="muted">-0.10334</text>
<rect x="287.6" y="409.3" width="11.4" height="1.0" fill="#9970ab"/>
<text transform="translate(293.3,450) rotate(-45)" text-anchor="end" class="muted">-0.094098</text>
<rect x="303.4" y="410.0" width="11.4" height="1.0" fill="#f4a582"/>
<text transform="translate(309.1,450) rotate(-45)" text-anchor="end" class="muted">-0.084856</text>
<rect x="319.2" y="407.2" width="11.4" height="2.8" fill="#92c5de"/>
<text transform="translate(324.9,450) rotate(-45)" text-anchor="end" class="muted">-0.075613</text>
<rect x="335.0" y="407.9" width="11.4" height="2.1" fill="#2166ac"/>
<text transform="translate(340.7,450) rotate(-45)" text-anchor="end" class="muted">-0.066371</text>
<rect x="350.8" y="407.9" width="11.4" height="2.1" fill="#d6604d"/>
<text transform="translate(356.5,450) rotate(-45)" text-anchor="end" class="muted">-0.057128</text>
<rect x="366.6" y="403.0" width="11.4" height="7.0" fill="#4393c3"/>
<text transform="translate(372.3,450) rotate(-45)" text-anchor="end" class="muted">-0.047886</text>
<rect x="382.4" y="391.8" width="11.4" height="18.2" fill="#b2182b"/>
<text transform="translate(388.1,450) rotate(-45)" text-anchor="end" class="muted">-0.038644</text>
<rect x="398.2" y="374.9" width="11.4" height="35.1" fill="#4d9221"/>
<text transform="translate(403.9,450) rotate(-45)" text-anchor="end" class="muted">-0.029401</text>
<rect x="414.0" y="334.3" width="11.4" height="75.7" fill="#9970ab"/>
<text transform="translate(419.7,450) rotate(-45)" text-anchor="end" class="muted">-0.020159</text>
<rect x="429.8" y="176.6" width="11.4" height="233.4" fill="#f4a582"/>
<text transform="translate(435.5,450) rotate(-45)" text-anchor="end" class="muted">-0.010916</text>
<rect x="445.6" y="70.0" width="11.4" height="340.0" fill="#92c5de"/>
<text transform="translate(451.3,450) rotate(-45)" text-anchor="end" class="muted">-0.001674</text>
<rect x="461.4" y="292.9" width="11.4" height="117.1" fill="#2166ac"/>
<text transform="translate(467.1,450) rotate(-45)" text-anchor="end" class="muted">0.007569</text>
<rect x="477.2" y="368.6" width="11.4" height="41.4" fill="#d6604d"/>
<text transform="translate(482.9,450) rotate(-45)" text-anchor="end" class="muted">0.016811</text>
<rect x="493.0" y="393.9" width="11.4" height="16.1" fill="#4393c3"/>
<text transform="translate(498.7,450) rotate(-45)" text-anchor="end" class="muted">0.026053</text>
<rect x="508.8" y="405.1" width="11.4" height="4.9" fill="#b2182b"/>
<text transform="translate(514.5,450) rotate(-45)" text-anchor="end" class="muted">0.035296</text>
<rect x="524.6" y="404.4" width="11.4" height="5.6" fill="#4d9221"/>
<text transform="translate(530.3,450) rotate(-45)" text-anchor="end" class="muted">0.044538</text>
<rect x="540.4" y="405.1" width="11.4" height="4.9" fill="#9970ab"/>
<text transform="translate(546.1,450) rotate(-45)" text-anchor="end" class="muted">0.053781</text>
<rect x="556.2" y="406.5" width="11.4" height="3.5" fill="#f4a582"/>
<text transform="translate(561.9,450) rotate(-45)" text-anchor="end" class="muted">0.063023</text>
<rect x="572.0" y="409.3" width="11.4" height="1.0" fill="#92c5de"/>
<text transform="translate(577.7,450) rotate(-45)" text-anchor="end" class="muted">0.072265</text>
<rect x="587.8" y="410.0" width="11.4" height="1.0" fill="#2166ac"/>
<text transform="translate(593.5,450) rotate(-45)" text-anchor="end" class="muted">0.081508</text>
<rect x="603.6" y="410.0" width="11.4" height="1.0" fill="#d6604d"/>
<text transform="translate(609.3,450) rotate(-45)" text-anchor="end" class="muted">0.09075</text>
<rect x="619.4" y="410.0" width="11.4" height="1.0" fill="#4393c3"/>
<text transform="translate(625.1,450) rotate(-45)" text-anchor="end" class="muted">0.099993</text>
<rect x="635.2" y="410.0" width="11.4" height="1.0" fill="#b2182b"/>
<text transform="translate(640.9,450) rotate(-45)" text-anchor="end" class="muted">0.109235</text>
<rect x="651.0" y="410.0" width="11.4" height="1.0" fill="#4d9221"/>
<text transform="translate(656.7,450) rotate(-45)" text-anchor="end" class="muted">0.118477</text>
<rect x="666.8" y="410.0" width="11.4" height="1.0" fill="#9970ab"/>
<text transform="translate(672.5,450) rotate(-45)" text-anchor="end" class="muted">0.12772</text>
<rect x="682.6" y="410.0" width="11.4" height="1.0" fill="#f4a582"/>
<text transform="translate(688.3,450) rotate(-45)" text-anchor="end" class="muted">0.136962</text>
<rect x="698.4" y="409.3" width="11.4" height="1.0" fill="#92c5de"/>
<text transform="translate(704.1,450) rotate(-45)" text-anchor="end" class="muted">0.146205</text>
<rect x="714.2" y="410.0" width="11.4" height="1.0" fill="#2166ac"/>
<text transform="translate(719.9,450) rotate(-45)" text-anchor="end" class="muted">0.155447</text>
<rect x="730.0" y="410.0" width="11.4" height="1.0" fill="#d6604d"/>
<text transform="translate(735.7,450) rotate(-45)" text-anchor="end" class="muted">0.16469</text>
<rect x="745.8" y="410.0" width="11.4" height="1.0" fill="#4393c3"/>
<text transform="translate(751.5,450) rotate(-45)" text-anchor="end" class="muted">0.173932</text>
<rect x="761.6" y="410.0" width="11.4" height="1.0" fill="#b2182b"/>
<text transform="translate(767.3,450) rotate(-45)" text-anchor="end" class="muted">0.183174</text>
<rect x="777.4" y="410.0" width="11.4" height="1.0" fill="#4d9221"/>
<text transform="translate(783.1,450) rotate(-45)" text-anchor="end" class="muted">0.192417</text>
<rect x="793.2" y="410.0" width="11.4" height="1.0" fill="#9970ab"/>
<text transform="translate(798.9,450) rotate(-45)" text-anchor="end" class="muted">0.201659</text>
<rect x="809.0" y="410.0" width="11.4" height="1.0" fill="#f4a582"/>
<text transform="translate(814.7,450) rotate(-45)" text-anchor="end" class="muted">0.210902</text>
<rect x="824.8" y="410.0" width="11.4" height="1.0" fill="#92c5de"/>
<text transform="translate(830.5,450) rotate(-45)" text-anchor="end" class="muted">0.220144</text>
<rect x="840.6" y="409.3" width="11.4" height="1.0" fill="#2166ac"/>
<text transform="translate(846.3,450) rotate(-45)" text-anchor="end" class="muted">0.229386</text>
<rect x="856.4" y="408.6" width="11.4" height="1.4" fill="#d6604d"/>
<text transform="translate(862.1,450) rotate(-45)" text-anchor="end" class="muted">0.238629</text>
</svg>