<svg xmlns="http://www.w3.org/2000/svg" width="980" height="540" viewBox="0 0 980 540">
<style>
text{font-family:Arial,Helvetica,sans-serif;fill:#17202a} .muted{fill:#5d6d7e;font-size:12px}
.title{font-size:20px;font-weight:700}.axis{stroke:#aeb6bf;stroke-width:1}.grid{stroke:#e5e8e8;stroke-width:1}
</style>
<rect width="100%" height="100%" fill="#ffffff"/>
<text x="90" y="38" class="title">Yield-curve PCA loadings</text>
<line x1="90" y1="75.0" x2="940" y2="75.0" class="grid"/>
<text x="80" y="79.0" text-anchor="end" class="muted">0.355922</text>
<line x1="90" y1="152.0" x2="940" y2="152.0" class="grid"/>
<text x="80" y="156.0" text-anchor="end" class="muted">0.084909</text>
<line x1="90" y1="229.0" x2="940" y2="229.0" class="grid"/>
<text x="80" y="233.0" text-anchor="end" class="muted">-0.186105</text>
<line x1="90" y1="306.0" x2="940" y2="306.0" class="grid"/>
<text x="80" y="310.0" text-anchor="end" class="muted">-0.457118</text>
<line x1="90" y1="383.0" x2="940" y2="383.0" class="grid"/>
<text x="80" y="387.0" text-anchor="end" class="muted">-0.728132</text>
<line x1="90" y1="460.0" x2="940" y2="460.0" class="grid"/>
<text x="80" y="464.0" text-anchor="end" class="muted">-0.999145</text>
<polyline points="90.0,183.9 160.8,298.8 231.7,294.1 302.5,289.1 373.3,283.8 444.2,266.5 515.0,255.1 585.8,242.2 656.7,233.0 727.5,220.9 798.3,211.9 869.2,208.7 940.0,206.8" fill="none" stroke="#2166ac" stroke-width="2"/>
<rect x="90" y="498" width="18" height="4" fill="#2166ac"/>
<text x="115" y="504" class="muted">PC1</text>
<polyline points="90.0,460.0 160.8,176.5 231.7,172.5 302.5,170.6 373.3,169.9 444.2,171.0 515.0,172.6 585.8,174.9 656.7,176.3 727.5,177.5 798.3,178.1 869.2,178.3 940.0,178.3" fill="none" stroke="#b2182b" stroke-width="2"/>
<rect x="240" y="498" width="18" height="4" fill="#b2182b"/>
<text x="265" y="504" class="muted">PC2</text>
<polyline points="90.0,179.3 160.8,299.1 231.7,258.1 302.5,224.6 373.3,197.6 444.2,135.6 515.0,111.3 585.8,96.1 656.7,91.2 727.5,87.0 798.3,81.9 869.2,78.4 940.0,75.0" fill="none" stroke="#4d9221" stroke-width="2"/>
<rect x="390" y="498" width="18" height="4" fill="#4d9221"/>
<text x="415" y="504" class="muted">PC3</text>
<text x="90.0" y="482" text-anchor="middle" class="muted">0 years</text>
<text x="231.7" y="482" text-anchor="middle" class="muted">0.5 years</text>
<text x="373.3" y="482" text-anchor="middle" class="muted">1 year</text>
<text x="585.8" y="482" text-anchor="middle" class="muted">5 years</text>
<text x="727.5" y="482" text-anchor="middle" class="muted">10 years</text>
<text x="940.0" y="482" text-anchor="middle" class="muted">30 years</text>
</svg>