<svg xmlns="http://www.w3.org/2000/svg" width="900" height="520" viewBox="0 0 900 520">
<style>
text{font-family:Arial,Helvetica,sans-serif;fill:#17202a} .muted{fill:#5d6d7e;font-size:12px}
.title{font-size:20px;font-weight:700}.axis{stroke:#aeb6bf;stroke-width:1}.grid{stroke:#e5e8e8;stroke-width:1}
</style>
<rect width="100%" height="100%" fill="#ffffff"/>
<text x="80" y="38" class="title">P&L distribution: fx, 1d</text>
<line x1="80" y1="70.0" x2="870" y2="70.0" class="grid"/>
<text x="70" y="74.0" text-anchor="end" class="muted">1 483.00</text>
<line x1="80" y1="138.0" x2="870" y2="138.0" class="grid"/>
<text x="70" y="142.0" text-anchor="end" class="muted">1 186.40</text>
<line x1="80" y1="206.0" x2="870" y2="206.0" class="grid"/>
<text x="70" y="210.0" text-anchor="end" class="muted">889.80</text>
<line x1="80" y1="274.0" x2="870" y2="274.0" class="grid"/>
<text x="70" y="278.0" text-anchor="end" class="muted">593.20</text>
<line x1="80" y1="342.0" x2="870" y2="342.0" class="grid"/>
<text x="70" y="346.0" text-anchor="end" class="muted">296.60</text>
<line x1="80" y1="410.0" x2="870" y2="410.0" class="grid"/>
<text x="70" y="414.0" text-anchor="end" class="muted">0</text>
<line x1="80" y1="410.0" x2="870" y2="410.0" class="axis"/>
<rect x="82.2" y="409.8" width="11.4" height="1.0" fill="#2166ac"/>
<text transform="translate(87.9,450) rotate(-45)" text-anchor="end" class="muted">-16 363 644</text>
<rect x="98.0" y="410.0" width="11.4" height="1.0" fill="#d6604d"/>
<text transform="translate(103.7,450) rotate(-45)" text-anchor="end" class="muted">-15 780 513</text>
<rect x="113.8" y="410.0" width="11.4" height="1.0" fill="#4393c3"/>
<text transform="translate(119.5,450) rotate(-45)" text-anchor="end" class="muted">-15 197 382</text>
<rect x="129.6" y="410.0" width="11.4" height="1.0" fill="#b2182b"/>
<text transform="translate(135.3,450) rotate(-45)" text-anchor="end" class="muted">-14 614 251</text>
<rect x="145.4" y="409.8" width="11.4" height="1.0" fill="#4d9221"/>
<text transform="translate(151.1,450) rotate(-45)" text-anchor="end" class="muted">-14 031 120</text>
<rect x="161.2" y="410.0" width="11.4" height="1.0" fill="#9970ab"/>
<text transform="translate(166.9,450) rotate(-45)" text-anchor="end" class="muted">-13 447 989</text>
<rect x="177.0" y="410.0" width="11.4" height="1.0" fill="#f4a582"/>
<text transform="translate(182.7,450) rotate(-45)" text-anchor="end" class="muted">-12 864 858</text>
<rect x="192.8" y="410.0" width="11.4" height="1.0" fill="#92c5de"/>
<text transform="translate(198.5,450) rotate(-45)" text-anchor="end" class="muted">-12 281 727</text>
<rect x="208.6" y="410.0" width="11.4" height="1.0" fill="#2166ac"/>
<text transform="translate(214.3,450) rotate(-45)" text-anchor="end" class="muted">-11 698 596</text>
<rect x="224.4" y="409.8" width="11.4" height="1.0" fill="#d6604d"/>
<text transform="translate(230.1,450) rotate(-45)" text-anchor="end" class="muted">-11 115 465</text>
<rect x="240.2" y="410.0" width="11.4" height="1.0" fill="#4393c3"/>
<text transform="translate(245.9,450) rotate(-45)" text-anchor="end" class="muted">-10 532 334</text>
<rect x="256.0" y="410.0" width="11.4" height="1.0" fill="#b2182b"/>
<text transform="translate(261.7,450) rotate(-45)" text-anchor="end" class="muted">-9 949 203</text>
<rect x="271.8" y="409.3" width="11.4" height="1.0" fill="#4d9221"/>
<text transform="translate(277.5,450) rotate(-45)" text-anchor="end" class="muted">-9 366 073</text>
<rect x="287.6" y="409.5" width="11.4" height="1.0" fill="#9970ab"/>
<text transform="translate(293.3,450) rotate(-45)" text-anchor="end" class="muted">-8 782 942</text>
<rect x="303.4" y="409.1" width="11.4" height="1.0" fill="#f4a582"/>
<text transform="translate(309.1,450) rotate(-45)" text-anchor="end" class="muted">-8 199 811</text>
<rect x="319.2" y="408.2" width="11.4" height="1.8" fill="#92c5de"/>
<text transform="translate(324.9,450) rotate(-45)" text-anchor="end" class="muted">-7 616 680</text>
<rect x="335.0" y="408.4" width="11.4" height="1.6" fill="#2166ac"/>
<text transform="translate(340.7,450) rotate(-45)" text-anchor="end" class="muted">-7 033 549</text>
<rect x="350.8" y="407.9" width="11.4" height="2.1" fill="#d6604d"/>
<text transform="translate(356.5,450) rotate(-45)" text-anchor="end" class="muted">-6 450 418</text>
<rect x="366.6" y="404.5" width="11.4" height="5.5" fill="#4393c3"/>
<text transform="translate(372.3,450) rotate(-45)" text-anchor="end" class="muted">-5 867 287</text>
<rect x="382.4" y="403.4" width="11.4" height="6.6" fill="#b2182b"/>
<text transform="translate(388.1,450) rotate(-45)" text-anchor="end" class="muted">-5 284 156</text>
<rect x="398.2" y="395.6" width="11.4" height="14.4" fill="#4d9221"/>
<text transform="translate(403.9,450) rotate(-45)" text-anchor="end" class="muted">-4 701 025</text>
<rect x="414.0" y="386.6" width="11.4" height="23.4" fill="#9970ab"/>
<text transform="translate(419.7,450) rotate(-45)" text-anchor="end" class="muted">-4 117 894</text>
<rect x="429.8" y="368.3" width="11.4" height="41.7" fill="#f4a582"/>
<text transform="translate(435.5,450) rotate(-45)" text-anchor="end" class="muted">-3 534 763</text>
<rect x="445.6" y="333.7" width="11.4" height="76.3" fill="#92c5de"/>
<text transform="translate(451.3,450) rotate(-45)" text-anchor="end" class="muted">-2 951 632</text>
<rect x="461.4" y="277.3" width="11.4" height="132.7" fill="#2166ac"/>
<text transform="translate(467.1,450) rotate(-45)" text-anchor="end" class="muted">-2 368 501</text>
<rect x="477.2" y="212.6" width="11.4" height="197.4" fill="#d6604d"/>
<text transform="translate(482.9,450) rotate(-45)" text-anchor="end" class="muted">-1 785 370</text>
<rect x="493.0" y="124.8" width="11.4" height="285.2" fill="#4393c3"/>
<text transform="translate(498.7,450) rotate(-45)" text-anchor="end" class="muted">-1 202 239</text>
<rect x="508.8" y="73.4" width="11.4" height="336.6" fill="#b2182b"/>
<text transform="translate(514.5,450) rotate(-45)" text-anchor="end" class="muted">-619 108.38</text>
<rect x="524.6" y="70.0" width="11.4" height="340.0" fill="#4d9221"/>
<text transform="translate(530.3,450) rotate(-45)" text-anchor="end" class="muted">-35 977.44</text>
<rect x="540.4" y="120.2" width="11.4" height="289.8" fill="#9970ab"/>
<text transform="translate(546.1,450) rotate(-45)" text-anchor="end" class="muted">547 153.51</text>
<rect x="556.2" y="191.1" width="11.4" height="218.9" fill="#f4a582"/>
<text transform="translate(561.9,450) rotate(-45)" text-anchor="end" class="muted">1 130 284</text>
<rect x="572.0" y="285.3" width="11.4" height="124.7" fill="#92c5de"/>
<text transform="translate(577.7,450) rotate(-45)" text-anchor="end" class="muted">1 713 415</text>
<rect x="587.8" y="332.0" width="11.4" height="78.0" fill="#2166ac"/>
<text transform="translate(593.5,450) rotate(-45)" text-anchor="end" class="muted">2 296 546</text>
<rect x="603.6" y="363.0" width="11.4" height="47.0" fill="#d6604d"/>
<text transform="translate(609.3,450) rotate(-45)" text-anchor="end" class="muted">2 879 677</text>
<rect x="619.4" y="380.4" width="11.4" height="29.6" fill="#4393c3"/>
<text transform="translate(625.1,450) rotate(-45)" text-anchor="end" class="muted">3 462 808</text>
<rect x="635.2" y="395.6" width="11.4" height="14.4" fill="#b2182b"/>
<text transform="translate(640.9,450) rotate(-45)" text-anchor="end" class="muted">4 045 939</text>
<rect x="651.0" y="400.6" width="11.4" height="9.4" fill="#4d9221"/>
<text transform="translate(656.7,450) rotate(-45)" text-anchor="end" class="muted">4 629 070</text>
<rect x="666.8" y="405.4" width="11.4" height="4.6" fill="#9970ab"/>
<text transform="translate(672.5,450) rotate(-45)" text-anchor="end" class="muted">5 212 201</text>
<rect x="682.6" y="406.8" width="11.4" height="3.2" fill="#f4a582"/>
<text transform="translate(688.3,450) rotate(-45)" text-anchor="end" class="muted">5 795 332</text>
<rect x="698.4" y="408.2" width="11.4" height="1.8" fill="#92c5de"/>
<text transform="translate(704.1,450) rotate(-45)" text-anchor="end" class="muted">6 378 463</text>
<rect x="714.2" y="409.8" width="11.4" height="1.0" fill="#2166ac"/>
<text transform="translate(719.9,450) rotate(-45)" text-anchor="end" class="muted">6 961 594</text>
<rect x="730.0" y="409.5" width="11.4" height="1.0" fill="#d6604d"/>
<text transform="translate(735.7,450) rotate(-45)" text-anchor="end" class="muted">7 544 725</text>
<rect x="745.8" y="409.3" width="11.4" height="1.0" fill="#4393c3"/>
<text transform="translate(751.5,450) rotate(-45)" text-anchor="end" class="muted">8 127 856</text>
<rect x="761.6" y="409.3" width="11.4" height="1.0" fill="#b2182b"/>
<text transform="translate(767.3,450) rotate(-45)" text-anchor="end" class="muted">8 710 987</text>
<rect x="777.4" y="410.0" width="11.4" height="1.0" fill="#4d9221"/>
<text transform="translate(783.1,450) rotate(-45)" text-anchor="end" class="muted">9 294 118</text>
<rect x="793.2" y="409.3" width="11.4" height="1.0" fill="#9970ab"/>
<text transform="translate(798.9,450) rotate(-45)" text-anchor="end" class="muted">9 877 249</text>
<rect x="809.0" y="410.0" width="11.4" height="1.0" fill="#f4a582"/>
<text transform="translate(814.7,450) rotate(-45)" text-anchor="end" class="muted">10 460 380</text>
<rect x="824.8" y="410.0" width="11.4" height="1.0" fill="#92c5de"/>
<text transform="translate(830.5,450) rotate(-45)" text-anchor="end" class="muted">11 043 510</text>
<rect x="840.6" y="410.0" width="11.4" height="1.0" fill="#2166ac"/>
<text transform="translate(846.3,450) rotate(-45)" text-anchor="end" class="muted">11 626 641</text>
<rect x="856.4" y="409.8" width="11.4" height="1.0" fill="#d6604d"/>
<text transform="translate(862.1,450) rotate(-45)" text-anchor="end" class="muted">12 209 772</text>
</svg>