<svg xmlns="http://www.w3.org/2000/svg" width="900" height="520" viewBox="0 0 900 520">
<style>
text{font-family:Arial,Helvetica,sans-serif;fill:#17202a} .muted{fill:#5d6d7e;font-size:12px}
.title{font-size:20px;font-weight:700}.axis{stroke:#aeb6bf;stroke-width:1}.grid{stroke:#e5e8e8;stroke-width:1}
</style>
<rect width="100%" height="100%" fill="#ffffff"/>
<text x="80" y="38" class="title">P&L distribution: fx, 10d</text>
<line x1="80" y1="70.0" x2="870" y2="70.0" class="grid"/>
<text x="70" y="74.0" text-anchor="end" class="muted">823.00</text>
<line x1="80" y1="138.0" x2="870" y2="138.0" class="grid"/>
<text x="70" y="142.0" text-anchor="end" class="muted">658.40</text>
<line x1="80" y1="206.0" x2="870" y2="206.0" class="grid"/>
<text x="70" y="210.0" text-anchor="end" class="muted">493.80</text>
<line x1="80" y1="274.0" x2="870" y2="274.0" class="grid"/>
<text x="70" y="278.0" text-anchor="end" class="muted">329.20</text>
<line x1="80" y1="342.0" x2="870" y2="342.0" class="grid"/>
<text x="70" y="346.0" text-anchor="end" class="muted">164.60</text>
<line x1="80" y1="410.0" x2="870" y2="410.0" class="grid"/>
<text x="70" y="414.0" text-anchor="end" class="muted">0</text>
<line x1="80" y1="410.0" x2="870" y2="410.0" class="axis"/>
<rect x="82.2" y="409.2" width="11.4" height="1.0" fill="#2166ac"/>
<text transform="translate(87.9,450) rotate(-45)" text-anchor="end" class="muted">-103 678 017</text>
<rect x="98.0" y="409.6" width="11.4" height="1.0" fill="#d6604d"/>
<text transform="translate(103.7,450) rotate(-45)" text-anchor="end" class="muted">-96 119 460</text>
<rect x="113.8" y="406.7" width="11.4" height="3.3" fill="#4393c3"/>
<text transform="translate(119.5,450) rotate(-45)" text-anchor="end" class="muted">-88 560 904</text>
<rect x="129.6" y="400.9" width="11.4" height="9.1" fill="#b2182b"/>
<text transform="translate(135.3,450) rotate(-45)" text-anchor="end" class="muted">-81 002 347</text>
<rect x="145.4" y="391.8" width="11.4" height="18.2" fill="#4d9221"/>
<text transform="translate(151.1,450) rotate(-45)" text-anchor="end" class="muted">-73 443 791</text>
<rect x="161.2" y="358.8" width="11.4" height="51.2" fill="#9970ab"/>
<text transform="translate(166.9,450) rotate(-45)" text-anchor="end" class="muted">-65 885 234</text>
<rect x="177.0" y="310.4" width="11.4" height="99.6" fill="#f4a582"/>
<text transform="translate(182.7,450) rotate(-45)" text-anchor="end" class="muted">-58 326 678</text>
<rect x="192.8" y="254.3" width="11.4" height="155.7" fill="#92c5de"/>
<text transform="translate(198.5,450) rotate(-45)" text-anchor="end" class="muted">-50 768 121</text>
<rect x="208.6" y="187.3" width="11.4" height="222.7" fill="#2166ac"/>
<text transform="translate(214.3,450) rotate(-45)" text-anchor="end" class="muted">-43 209 565</text>
<rect x="224.4" y="165.0" width="11.4" height="245.0" fill="#d6604d"/>
<text transform="translate(230.1,450) rotate(-45)" text-anchor="end" class="muted">-35 651 009</text>
<rect x="240.2" y="92.7" width="11.4" height="317.3" fill="#4393c3"/>
<text transform="translate(245.9,450) rotate(-45)" text-anchor="end" class="muted">-28 092 452</text>
<rect x="256.0" y="90.7" width="11.4" height="319.3" fill="#b2182b"/>
<text transform="translate(261.7,450) rotate(-45)" text-anchor="end" class="muted">-20 533 896</text>
<rect x="271.8" y="81.6" width="11.4" height="328.4" fill="#4d9221"/>
<text transform="translate(277.5,450) rotate(-45)" text-anchor="end" class="muted">-12 975 339</text>
<rect x="287.6" y="70.0" width="11.4" height="340.0" fill="#9970ab"/>
<text transform="translate(293.3,450) rotate(-45)" text-anchor="end" class="muted">-5 416 783</text>
<rect x="303.4" y="107.2" width="11.4" height="302.8" fill="#f4a582"/>
<text transform="translate(309.1,450) rotate(-45)" text-anchor="end" class="muted">2 141 774</text>
<rect x="319.2" y="143.5" width="11.4" height="266.5" fill="#92c5de"/>
<text transform="translate(324.9,450) rotate(-45)" text-anchor="end" class="muted">9 700 330</text>
<rect x="335.0" y="153.5" width="11.4" height="256.5" fill="#2166ac"/>
<text transform="translate(340.7,450) rotate(-45)" text-anchor="end" class="muted">17 258 887</text>
<rect x="350.8" y="194.8" width="11.4" height="215.2" fill="#d6604d"/>
<text transform="translate(356.5,450) rotate(-45)" text-anchor="end" class="muted">24 817 443</text>
<rect x="366.6" y="223.7" width="11.4" height="186.3" fill="#4393c3"/>
<text transform="translate(372.3,450) rotate(-45)" text-anchor="end" class="muted">32 376 000</text>
<rect x="382.4" y="263.3" width="11.4" height="146.7" fill="#b2182b"/>
<text transform="translate(388.1,450) rotate(-45)" text-anchor="end" class="muted">39 934 556</text>
<rect x="398.2" y="285.2" width="11.4" height="124.8" fill="#4d9221"/>
<text transform="translate(403.9,450) rotate(-45)" text-anchor="end" class="muted">47 493 112</text>
<rect x="414.0" y="311.3" width="11.4" height="98.7" fill="#9970ab"/>
<text transform="translate(419.7,450) rotate(-45)" text-anchor="end" class="muted">55 051 669</text>
<rect x="429.8" y="323.7" width="11.4" height="86.3" fill="#f4a582"/>
<text transform="translate(435.5,450) rotate(-45)" text-anchor="end" class="muted">62 610 225</text>
<rect x="445.6" y="341.8" width="11.4" height="68.2" fill="#92c5de"/>
<text transform="translate(451.3,450) rotate(-45)" text-anchor="end" class="muted">70 168 782</text>
<rect x="461.4" y="355.1" width="11.4" height="54.9" fill="#2166ac"/>
<text transform="translate(467.1,450) rotate(-45)" text-anchor="end" class="muted">77 727 338</text>
<rect x="477.2" y="365.0" width="11.4" height="45.0" fill="#d6604d"/>
<text transform="translate(482.9,450) rotate(-45)" text-anchor="end" class="muted">85 285 895</text>
<rect x="493.0" y="376.1" width="11.4" height="33.9" fill="#4393c3"/>
<text transform="translate(498.7,450) rotate(-45)" text-anchor="end" class="muted">92 844 451</text>
<rect x="508.8" y="379.8" width="11.4" height="30.2" fill="#b2182b"/>
<text transform="translate(514.5,450) rotate(-45)" text-anchor="end" class="muted">100 403 008</text>
<rect x="524.6" y="389.8" width="11.4" height="20.2" fill="#4d9221"/>
<text transform="translate(530.3,450) rotate(-45)" text-anchor="end" class="muted">107 961 564</text>
<rect x="540.4" y="393.5" width="11.4" height="16.5" fill="#9970ab"/>
<text transform="translate(546.1,450) rotate(-45)" text-anchor="end" class="muted">115 520 121</text>
<rect x="556.2" y="397.6" width="11.4" height="12.4" fill="#f4a582"/>
<text transform="translate(561.9,450) rotate(-45)" text-anchor="end" class="muted">123 078 677</text>
<rect x="572.0" y="398.0" width="11.4" height="12.0" fill="#92c5de"/>
<text transform="translate(577.7,450) rotate(-45)" text-anchor="end" class="muted">130 637 233</text>
<rect x="587.8" y="400.5" width="11.4" height="9.5" fill="#2166ac"/>
<text transform="translate(593.5,450) rotate(-45)" text-anchor="end" class="muted">138 195 790</text>
<rect x="603.6" y="402.6" width="11.4" height="7.4" fill="#d6604d"/>
<text transform="translate(609.3,450) rotate(-45)" text-anchor="end" class="muted">145 754 346</text>
<rect x="619.4" y="402.2" width="11.4" height="7.8" fill="#4393c3"/>
<text transform="translate(625.1,450) rotate(-45)" text-anchor="end" class="muted">153 312 903</text>
<rect x="635.2" y="405.0" width="11.4" height="5.0" fill="#b2182b"/>
<text transform="translate(640.9,450) rotate(-45)" text-anchor="end" class="muted">160 871 459</text>
<rect x="651.0" y="408.8" width="11.4" height="1.2" fill="#4d9221"/>
<text transform="translate(656.7,450) rotate(-45)" text-anchor="end" class="muted">168 430 016</text>
<rect x="666.8" y="406.7" width="11.4" height="3.3" fill="#9970ab"/>
<text transform="translate(672.5,450) rotate(-45)" text-anchor="end" class="muted">175 988 572</text>
<rect x="682.6" y="407.9" width="11.4" height="2.1" fill="#f4a582"/>
<text transform="translate(688.3,450) rotate(-45)" text-anchor="end" class="muted">183 547 129</text>
<rect x="698.4" y="409.2" width="11.4" height="1.0" fill="#92c5de"/>
<text transform="translate(704.1,450) rotate(-45)" text-anchor="end" class="muted">191 105 685</text>
<rect x="714.2" y="409.2" width="11.4" height="1.0" fill="#2166ac"/>
<text transform="translate(719.9,450) rotate(-45)" text-anchor="end" class="muted">198 664 242</text>
<rect x="730.0" y="409.6" width="11.4" height="1.0" fill="#d6604d"/>
<text transform="translate(735.7,450) rotate(-45)" text-anchor="end" class="muted">206 222 798</text>
<rect x="745.8" y="409.6" width="11.4" height="1.0" fill="#4393c3"/>
<text transform="translate(751.5,450) rotate(-45)" text-anchor="end" class="muted">213 781 354</text>
<rect x="761.6" y="407.9" width="11.4" height="2.1" fill="#b2182b"/>
<text transform="translate(767.3,450) rotate(-45)" text-anchor="end" class="muted">221 339 911</text>
<rect x="777.4" y="410.0" width="11.4" height="1.0" fill="#4d9221"/>
<text transform="translate(783.1,450) rotate(-45)" text-anchor="end" class="muted">228 898 467</text>
<rect x="793.2" y="409.2" width="11.4" height="1.0" fill="#9970ab"/>
<text transform="translate(798.9,450) rotate(-45)" text-anchor="end" class="muted">236 457 024</text>
<rect x="809.0" y="410.0" width="11.4" height="1.0" fill="#f4a582"/>
<text transform="translate(814.7,450) rotate(-45)" text-anchor="end" class="muted">244 015 580</text>
<rect x="824.8" y="409.6" width="11.4" height="1.0" fill="#92c5de"/>
<text transform="translate(830.5,450) rotate(-45)" text-anchor="end" class="muted">251 574 137</text>
<rect x="840.6" y="410.0" width="11.4" height="1.0" fill="#2166ac"/>
<text transform="translate(846.3,450) rotate(-45)" text-anchor="end" class="muted">259 132 693</text>
<rect x="856.4" y="409.2" width="11.4" height="1.0" fill="#d6604d"/>
<text transform="translate(862.1,450) rotate(-45)" text-anchor="end" class="muted">266 691 250</text>
</svg>