<svg xmlns="http://www.w3.org/2000/svg" width="900" height="520" viewBox="0 0 900 520">
<style>
text{font-family:Arial,Helvetica,sans-serif;fill:#17202a} .muted{fill:#5d6d7e;font-size:12px}
.title{font-size:20px;font-weight:700}.axis{stroke:#aeb6bf;stroke-width:1}.grid{stroke:#e5e8e8;stroke-width:1}
</style>
<rect width="100%" height="100%" fill="#ffffff"/>
<text x="80" y="38" class="title">P&L distribution: fx, 10d</text>
<line x1="80" y1="70.0" x2="870" y2="70.0" class="grid"/>
<text x="70" y="74.0" text-anchor="end" class="muted">759.00</text>
<line x1="80" y1="138.0" x2="870" y2="138.0" class="grid"/>
<text x="70" y="142.0" text-anchor="end" class="muted">607.20</text>
<line x1="80" y1="206.0" x2="870" y2="206.0" class="grid"/>
<text x="70" y="210.0" text-anchor="end" class="muted">455.40</text>
<line x1="80" y1="274.0" x2="870" y2="274.0" class="grid"/>
<text x="70" y="278.0" text-anchor="end" class="muted">303.60</text>
<line x1="80" y1="342.0" x2="870" y2="342.0" class="grid"/>
<text x="70" y="346.0" text-anchor="end" class="muted">151.80</text>
<line x1="80" y1="410.0" x2="870" y2="410.0" class="grid"/>
<text x="70" y="414.0" text-anchor="end" class="muted">0</text>
<line x1="80" y1="410.0" x2="870" y2="410.0" class="axis"/>
<rect x="82.2" y="409.6" width="11.4" height="1.0" fill="#2166ac"/>
<text transform="translate(87.9,450) rotate(-45)" text-anchor="end" class="muted">-27 763 105</text>
<rect x="98.0" y="410.0" width="11.4" height="1.0" fill="#d6604d"/>
<text transform="translate(103.7,450) rotate(-45)" text-anchor="end" class="muted">-26 736 720</text>
<rect x="113.8" y="410.0" width="11.4" height="1.0" fill="#4393c3"/>
<text transform="translate(119.5,450) rotate(-45)" text-anchor="end" class="muted">-25 710 335</text>
<rect x="129.6" y="410.0" width="11.4" height="1.0" fill="#b2182b"/>
<text transform="translate(135.3,450) rotate(-45)" text-anchor="end" class="muted">-24 683 950</text>
<rect x="145.4" y="410.0" width="11.4" height="1.0" fill="#4d9221"/>
<text transform="translate(151.1,450) rotate(-45)" text-anchor="end" class="muted">-23 657 565</text>
<rect x="161.2" y="409.6" width="11.4" height="1.0" fill="#9970ab"/>
<text transform="translate(166.9,450) rotate(-45)" text-anchor="end" class="muted">-22 631 181</text>
<rect x="177.0" y="410.0" width="11.4" height="1.0" fill="#f4a582"/>
<text transform="translate(182.7,450) rotate(-45)" text-anchor="end" class="muted">-21 604 796</text>
<rect x="192.8" y="409.6" width="11.4" height="1.0" fill="#92c5de"/>
<text transform="translate(198.5,450) rotate(-45)" text-anchor="end" class="muted">-20 578 411</text>
<rect x="208.6" y="407.3" width="11.4" height="2.7" fill="#2166ac"/>
<text transform="translate(214.3,450) rotate(-45)" text-anchor="end" class="muted">-19 552 026</text>
<rect x="224.4" y="406.9" width="11.4" height="3.1" fill="#d6604d"/>
<text transform="translate(230.1,450) rotate(-45)" text-anchor="end" class="muted">-18 525 641</text>
<rect x="240.2" y="406.0" width="11.4" height="4.0" fill="#4393c3"/>
<text transform="translate(245.9,450) rotate(-45)" text-anchor="end" class="muted">-17 499 257</text>
<rect x="256.0" y="402.4" width="11.4" height="7.6" fill="#b2182b"/>
<text transform="translate(261.7,450) rotate(-45)" text-anchor="end" class="muted">-16 472 872</text>
<rect x="271.8" y="402.8" width="11.4" height="7.2" fill="#4d9221"/>
<text transform="translate(277.5,450) rotate(-45)" text-anchor="end" class="muted">-15 446 487</text>
<rect x="287.6" y="399.2" width="11.4" height="10.8" fill="#9970ab"/>
<text transform="translate(293.3,450) rotate(-45)" text-anchor="end" class="muted">-14 420 102</text>
<rect x="303.4" y="392.1" width="11.4" height="17.9" fill="#f4a582"/>
<text transform="translate(309.1,450) rotate(-45)" text-anchor="end" class="muted">-13 393 717</text>
<rect x="319.2" y="375.5" width="11.4" height="34.5" fill="#92c5de"/>
<text transform="translate(324.9,450) rotate(-45)" text-anchor="end" class="muted">-12 367 332</text>
<rect x="335.0" y="368.8" width="11.4" height="41.2" fill="#2166ac"/>
<text transform="translate(340.7,450) rotate(-45)" text-anchor="end" class="muted">-11 340 948</text>
<rect x="350.8" y="344.6" width="11.4" height="65.4" fill="#d6604d"/>
<text transform="translate(356.5,450) rotate(-45)" text-anchor="end" class="muted">-10 314 563</text>
<rect x="366.6" y="322.2" width="11.4" height="87.8" fill="#4393c3"/>
<text transform="translate(372.3,450) rotate(-45)" text-anchor="end" class="muted">-9 288 178</text>
<rect x="382.4" y="298.0" width="11.4" height="112.0" fill="#b2182b"/>
<text transform="translate(388.1,450) rotate(-45)" text-anchor="end" class="muted">-8 261 793</text>
<rect x="398.2" y="259.5" width="11.4" height="150.5" fill="#4d9221"/>
<text transform="translate(403.9,450) rotate(-45)" text-anchor="end" class="muted">-7 235 408</text>
<rect x="414.0" y="215.1" width="11.4" height="194.9" fill="#9970ab"/>
<text transform="translate(419.7,450) rotate(-45)" text-anchor="end" class="muted">-6 209 023</text>
<rect x="429.8" y="178.0" width="11.4" height="232.0" fill="#f4a582"/>
<text transform="translate(435.5,450) rotate(-45)" text-anchor="end" class="muted">-5 182 639</text>
<rect x="445.6" y="144.4" width="11.4" height="265.6" fill="#92c5de"/>
<text transform="translate(451.3,450) rotate(-45)" text-anchor="end" class="muted">-4 156 254</text>
<rect x="461.4" y="122.0" width="11.4" height="288.0" fill="#2166ac"/>
<text transform="translate(467.1,450) rotate(-45)" text-anchor="end" class="muted">-3 129 869</text>
<rect x="477.2" y="76.7" width="11.4" height="333.3" fill="#d6604d"/>
<text transform="translate(482.9,450) rotate(-45)" text-anchor="end" class="muted">-2 103 484</text>
<rect x="493.0" y="78.5" width="11.4" height="331.5" fill="#4393c3"/>
<text transform="translate(498.7,450) rotate(-45)" text-anchor="end" class="muted">-1 077 099</text>
<rect x="508.8" y="70.9" width="11.4" height="339.1" fill="#b2182b"/>
<text transform="translate(514.5,450) rotate(-45)" text-anchor="end" class="muted">-50 714.43</text>
<rect x="524.6" y="70.0" width="11.4" height="340.0" fill="#4d9221"/>
<text transform="translate(530.3,450) rotate(-45)" text-anchor="end" class="muted">975 670.39</text>
<rect x="540.4" y="109.0" width="11.4" height="301.0" fill="#9970ab"/>
<text transform="translate(546.1,450) rotate(-45)" text-anchor="end" class="muted">2 002 055</text>
<rect x="556.2" y="162.3" width="11.4" height="247.7" fill="#f4a582"/>
<text transform="translate(561.9,450) rotate(-45)" text-anchor="end" class="muted">3 028 440</text>
<rect x="572.0" y="182.9" width="11.4" height="227.1" fill="#92c5de"/>
<text transform="translate(577.7,450) rotate(-45)" text-anchor="end" class="muted">4 054 825</text>
<rect x="587.8" y="221.0" width="11.4" height="189.0" fill="#2166ac"/>
<text transform="translate(593.5,450) rotate(-45)" text-anchor="end" class="muted">5 081 210</text>
<rect x="603.6" y="251.4" width="11.4" height="158.6" fill="#d6604d"/>
<text transform="translate(609.3,450) rotate(-45)" text-anchor="end" class="muted">6 107 595</text>
<rect x="619.4" y="292.2" width="11.4" height="117.8" fill="#4393c3"/>
<text transform="translate(625.1,450) rotate(-45)" text-anchor="end" class="muted">7 133 979</text>
<rect x="635.2" y="306.1" width="11.4" height="103.9" fill="#b2182b"/>
<text transform="translate(640.9,450) rotate(-45)" text-anchor="end" class="muted">8 160 364</text>
<rect x="651.0" y="329.8" width="11.4" height="80.2" fill="#4d9221"/>
<text transform="translate(656.7,450) rotate(-45)" text-anchor="end" class="muted">9 186 749</text>
<rect x="666.8" y="354.9" width="11.4" height="55.1" fill="#9970ab"/>
<text transform="translate(672.5,450) rotate(-45)" text-anchor="end" class="muted">10 213 134</text>
<rect x="682.6" y="378.6" width="11.4" height="31.4" fill="#f4a582"/>
<text transform="translate(688.3,450) rotate(-45)" text-anchor="end" class="muted">11 239 519</text>
<rect x="698.4" y="384.5" width="11.4" height="25.5" fill="#92c5de"/>
<text transform="translate(704.1,450) rotate(-45)" text-anchor="end" class="muted">12 265 903</text>
<rect x="714.2" y="389.4" width="11.4" height="20.6" fill="#2166ac"/>
<text transform="translate(719.9,450) rotate(-45)" text-anchor="end" class="muted">13 292 288</text>
<rect x="730.0" y="390.3" width="11.4" height="19.7" fill="#d6604d"/>
<text transform="translate(735.7,450) rotate(-45)" text-anchor="end" class="muted">14 318 673</text>
<rect x="745.8" y="394.8" width="11.4" height="15.2" fill="#4393c3"/>
<text transform="translate(751.5,450) rotate(-45)" text-anchor="end" class="muted">15 345 058</text>
<rect x="761.6" y="404.2" width="11.4" height="5.8" fill="#b2182b"/>
<text transform="translate(767.3,450) rotate(-45)" text-anchor="end" class="muted">16 371 443</text>
<rect x="777.4" y="405.1" width="11.4" height="4.9" fill="#4d9221"/>
<text transform="translate(783.1,450) rotate(-45)" text-anchor="end" class="muted">17 397 828</text>
<rect x="793.2" y="407.8" width="11.4" height="2.2" fill="#9970ab"/>
<text transform="translate(798.9,450) rotate(-45)" text-anchor="end" class="muted">18 424 212</text>
<rect x="809.0" y="408.2" width="11.4" height="1.8" fill="#f4a582"/>
<text transform="translate(814.7,450) rotate(-45)" text-anchor="end" class="muted">19 450 597</text>
<rect x="824.8" y="409.1" width="11.4" height="1.0" fill="#92c5de"/>
<text transform="translate(830.5,450) rotate(-45)" text-anchor="end" class="muted">20 476 982</text>
<rect x="840.6" y="410.0" width="11.4" height="1.0" fill="#2166ac"/>
<text transform="translate(846.3,450) rotate(-45)" text-anchor="end" class="muted">21 503 367</text>
<rect x="856.4" y="409.6" width="11.4" height="1.0" fill="#d6604d"/>
<text transform="translate(862.1,450) rotate(-45)" text-anchor="end" class="muted">22 529 752</text>
</svg>