<svg xmlns="http://www.w3.org/2000/svg" width="900" height="520" viewBox="0 0 900 520">
<style>
text{font-family:Arial,Helvetica,sans-serif;fill:#17202a} .muted{fill:#5d6d7e;font-size:12px}
.title{font-size:20px;font-weight:700}.axis{stroke:#aeb6bf;stroke-width:1}.grid{stroke:#e5e8e8;stroke-width:1}
</style>
<rect width="100%" height="100%" fill="#ffffff"/>
<text x="80" y="38" class="title">P&L distribution: total, 1d</text>
<line x1="80" y1="70.0" x2="870" y2="70.0" class="grid"/>
<text x="70" y="74.0" text-anchor="end" class="muted">624.00</text>
<line x1="80" y1="138.0" x2="870" y2="138.0" class="grid"/>
<text x="70" y="142.0" text-anchor="end" class="muted">499.20</text>
<line x1="80" y1="206.0" x2="870" y2="206.0" class="grid"/>
<text x="70" y="210.0" text-anchor="end" class="muted">374.40</text>
<line x1="80" y1="274.0" x2="870" y2="274.0" class="grid"/>
<text x="70" y="278.0" text-anchor="end" class="muted">249.60</text>
<line x1="80" y1="342.0" x2="870" y2="342.0" class="grid"/>
<text x="70" y="346.0" text-anchor="end" class="muted">124.80</text>
<line x1="80" y1="410.0" x2="870" y2="410.0" class="grid"/>
<text x="70" y="414.0" text-anchor="end" class="muted">0</text>
<line x1="80" y1="410.0" x2="870" y2="410.0" class="axis"/>
<rect x="82.2" y="409.5" width="11.4" height="1.0" fill="#2166ac"/>
<text transform="translate(87.9,450) rotate(-45)" text-anchor="end" class="muted">-39 782 936</text>
<rect x="98.0" y="409.5" width="11.4" height="1.0" fill="#d6604d"/>
<text transform="translate(103.7,450) rotate(-45)" text-anchor="end" class="muted">-37 907 520</text>
<rect x="113.8" y="408.4" width="11.4" height="1.6" fill="#4393c3"/>
<text transform="translate(119.5,450) rotate(-45)" text-anchor="end" class="muted">-36 032 104</text>
<rect x="129.6" y="406.2" width="11.4" height="3.8" fill="#b2182b"/>
<text transform="translate(135.3,450) rotate(-45)" text-anchor="end" class="muted">-34 156 687</text>
<rect x="145.4" y="402.9" width="11.4" height="7.1" fill="#4d9221"/>
<text transform="translate(151.1,450) rotate(-45)" text-anchor="end" class="muted">-32 281 271</text>
<rect x="161.2" y="402.4" width="11.4" height="7.6" fill="#9970ab"/>
<text transform="translate(166.9,450) rotate(-45)" text-anchor="end" class="muted">-30 405 854</text>
<rect x="177.0" y="396.4" width="11.4" height="13.6" fill="#f4a582"/>
<text transform="translate(182.7,450) rotate(-45)" text-anchor="end" class="muted">-28 530 438</text>
<rect x="192.8" y="372.9" width="11.4" height="37.1" fill="#92c5de"/>
<text transform="translate(198.5,450) rotate(-45)" text-anchor="end" class="muted">-26 655 021</text>
<rect x="208.6" y="372.9" width="11.4" height="37.1" fill="#2166ac"/>
<text transform="translate(214.3,450) rotate(-45)" text-anchor="end" class="muted">-24 779 605</text>
<rect x="224.4" y="357.1" width="11.4" height="52.9" fill="#d6604d"/>
<text transform="translate(230.1,450) rotate(-45)" text-anchor="end" class="muted">-22 904 188</text>
<rect x="240.2" y="335.4" width="11.4" height="74.6" fill="#4393c3"/>
<text transform="translate(245.9,450) rotate(-45)" text-anchor="end" class="muted">-21 028 772</text>
<rect x="256.0" y="298.3" width="11.4" height="111.7" fill="#b2182b"/>
<text transform="translate(261.7,450) rotate(-45)" text-anchor="end" class="muted">-19 153 355</text>
<rect x="271.8" y="265.6" width="11.4" height="144.4" fill="#4d9221"/>
<text transform="translate(277.5,450) rotate(-45)" text-anchor="end" class="muted">-17 277 939</text>
<rect x="287.6" y="261.8" width="11.4" height="148.2" fill="#9970ab"/>
<text transform="translate(293.3,450) rotate(-45)" text-anchor="end" class="muted">-15 402 523</text>
<rect x="303.4" y="220.4" width="11.4" height="189.6" fill="#f4a582"/>
<text transform="translate(309.1,450) rotate(-45)" text-anchor="end" class="muted">-13 527 106</text>
<rect x="319.2" y="167.0" width="11.4" height="243.0" fill="#92c5de"/>
<text transform="translate(324.9,450) rotate(-45)" text-anchor="end" class="muted">-11 651 690</text>
<rect x="335.0" y="142.5" width="11.4" height="267.5" fill="#2166ac"/>
<text transform="translate(340.7,450) rotate(-45)" text-anchor="end" class="muted">-9 776 273</text>
<rect x="350.8" y="123.9" width="11.4" height="286.1" fill="#d6604d"/>
<text transform="translate(356.5,450) rotate(-45)" text-anchor="end" class="muted">-7 900 857</text>
<rect x="366.6" y="95.1" width="11.4" height="314.9" fill="#4393c3"/>
<text transform="translate(372.3,450) rotate(-45)" text-anchor="end" class="muted">-6 025 440</text>
<rect x="382.4" y="70.0" width="11.4" height="340.0" fill="#b2182b"/>
<text transform="translate(388.1,450) rotate(-45)" text-anchor="end" class="muted">-4 150 024</text>
<rect x="398.2" y="75.4" width="11.4" height="334.6" fill="#4d9221"/>
<text transform="translate(403.9,450) rotate(-45)" text-anchor="end" class="muted">-2 274 607</text>
<rect x="414.0" y="79.8" width="11.4" height="330.2" fill="#9970ab"/>
<text transform="translate(419.7,450) rotate(-45)" text-anchor="end" class="muted">-399 190.93</text>
<rect x="429.8" y="102.7" width="11.4" height="307.3" fill="#f4a582"/>
<text transform="translate(435.5,450) rotate(-45)" text-anchor="end" class="muted">1 476 226</text>
<rect x="445.6" y="120.7" width="11.4" height="289.3" fill="#92c5de"/>
<text transform="translate(451.3,450) rotate(-45)" text-anchor="end" class="muted">3 351 642</text>
<rect x="461.4" y="119.0" width="11.4" height="291.0" fill="#2166ac"/>
<text transform="translate(467.1,450) rotate(-45)" text-anchor="end" class="muted">5 227 058</text>
<rect x="477.2" y="149.6" width="11.4" height="260.4" fill="#d6604d"/>
<text transform="translate(482.9,450) rotate(-45)" text-anchor="end" class="muted">7 102 475</text>
<rect x="493.0" y="171.3" width="11.4" height="238.7" fill="#4393c3"/>
<text transform="translate(498.7,450) rotate(-45)" text-anchor="end" class="muted">8 977 891</text>
<rect x="508.8" y="214.4" width="11.4" height="195.6" fill="#b2182b"/>
<text transform="translate(514.5,450) rotate(-45)" text-anchor="end" class="muted">10 853 308</text>
<rect x="524.6" y="210.6" width="11.4" height="199.4" fill="#4d9221"/>
<text transform="translate(530.3,450) rotate(-45)" text-anchor="end" class="muted">12 728 724</text>
<rect x="540.4" y="268.3" width="11.4" height="141.7" fill="#9970ab"/>
<text transform="translate(546.1,450) rotate(-45)" text-anchor="end" class="muted">14 604 141</text>
<rect x="556.2" y="272.1" width="11.4" height="137.9" fill="#f4a582"/>
<text transform="translate(561.9,450) rotate(-45)" text-anchor="end" class="muted">16 479 557</text>
<rect x="572.0" y="312.5" width="11.4" height="97.5" fill="#92c5de"/>
<text transform="translate(577.7,450) rotate(-45)" text-anchor="end" class="muted">18 354 974</text>
<rect x="587.8" y="331.5" width="11.4" height="78.5" fill="#2166ac"/>
<text transform="translate(593.5,450) rotate(-45)" text-anchor="end" class="muted">20 230 390</text>
<rect x="603.6" y="341.3" width="11.4" height="68.7" fill="#d6604d"/>
<text transform="translate(609.3,450) rotate(-45)" text-anchor="end" class="muted">22 105 807</text>
<rect x="619.4" y="361.0" width="11.4" height="49.0" fill="#4393c3"/>
<text transform="translate(625.1,450) rotate(-45)" text-anchor="end" class="muted">23 981 223</text>
<rect x="635.2" y="372.4" width="11.4" height="37.6" fill="#b2182b"/>
<text transform="translate(640.9,450) rotate(-45)" text-anchor="end" class="muted">25 856 639</text>
<rect x="651.0" y="377.3" width="11.4" height="32.7" fill="#4d9221"/>
<text transform="translate(656.7,450) rotate(-45)" text-anchor="end" class="muted">27 732 056</text>
<rect x="666.8" y="390.4" width="11.4" height="19.6" fill="#9970ab"/>
<text transform="translate(672.5,450) rotate(-45)" text-anchor="end" class="muted">29 607 472</text>
<rect x="682.6" y="398.6" width="11.4" height="11.4" fill="#f4a582"/>
<text transform="translate(688.3,450) rotate(-45)" text-anchor="end" class="muted">31 482 889</text>
<rect x="698.4" y="399.1" width="11.4" height="10.9" fill="#92c5de"/>
<text transform="translate(704.1,450) rotate(-45)" text-anchor="end" class="muted">33 358 305</text>
<rect x="714.2" y="400.7" width="11.4" height="9.3" fill="#2166ac"/>
<text transform="translate(719.9,450) rotate(-45)" text-anchor="end" class="muted">35 233 722</text>
<rect x="730.0" y="401.3" width="11.4" height="8.7" fill="#d6604d"/>
<text transform="translate(735.7,450) rotate(-45)" text-anchor="end" class="muted">37 109 138</text>
<rect x="745.8" y="406.2" width="11.4" height="3.8" fill="#4393c3"/>
<text transform="translate(751.5,450) rotate(-45)" text-anchor="end" class="muted">38 984 555</text>
<rect x="761.6" y="405.6" width="11.4" height="4.4" fill="#b2182b"/>
<text transform="translate(767.3,450) rotate(-45)" text-anchor="end" class="muted">40 859 971</text>
<rect x="777.4" y="407.3" width="11.4" height="2.7" fill="#4d9221"/>
<text transform="translate(783.1,450) rotate(-45)" text-anchor="end" class="muted">42 735 387</text>
<rect x="793.2" y="408.9" width="11.4" height="1.1" fill="#9970ab"/>
<text transform="translate(798.9,450) rotate(-45)" text-anchor="end" class="muted">44 610 804</text>
<rect x="809.0" y="407.8" width="11.4" height="2.2" fill="#f4a582"/>
<text transform="translate(814.7,450) rotate(-45)" text-anchor="end" class="muted">46 486 220</text>
<rect x="824.8" y="410.0" width="11.4" height="1.0" fill="#92c5de"/>
<text transform="translate(830.5,450) rotate(-45)" text-anchor="end" class="muted">48 361 637</text>
<rect x="840.6" y="408.4" width="11.4" height="1.6" fill="#2166ac"/>
<text transform="translate(846.3,450) rotate(-45)" text-anchor="end" class="muted">50 237 053</text>
<rect x="856.4" y="408.9" width="11.4" height="1.1" fill="#d6604d"/>
<text transform="translate(862.1,450) rotate(-45)" text-anchor="end" class="muted">52 112 470</text>
</svg>